<svg viewBox="0 0 144 143.98989898989902" xmlns="http://www.w3.org/2000/svg" style="max-height: 500px" width="144" height="143.98989898989902"><defs><style>.cls-1{fill:#ffda00;}.cls-2{fill:#121227;}</style></defs><g data-name="Layer 2" id="Layer_2"><g data-name="Layer 1" id="Layer_1-2"><path transform="translate(142.55 55.68) rotate(-180)" d="M4.45,0H138.1a4.45,4.45,0,0,1,4.45,4.45V29a26.73,26.73,0,0,1-26.73,26.73H4.45A4.45,4.45,0,0,1,0,51.23V4.45A4.45,4.45,0,0,1,4.45,0Z" class="cls-1"/><path transform="translate(43.43 185.99) rotate(-90)" d="M47.89,43.43H181.53A4.45,4.45,0,0,1,186,47.89V94.66a4.45,4.45,0,0,1-4.45,4.45H70.16A26.73,26.73,0,0,1,43.43,72.39V47.89A4.45,4.45,0,0,1,47.89,43.43Z" class="cls-1"/><path transform="translate(65.3 219.8) rotate(180)" d="M16.89,77.25H48.41A16.89,16.89,0,0,1,65.3,94.15v31.51a16.89,16.89,0,0,1-16.89,16.89H0a0,0,0,0,1,0,0V94.15A16.89,16.89,0,0,1,16.89,77.25Z" class="cls-1"/><path transform="translate(1280 47.26) rotate(180)" d="M636.55,11h6.91a9.22,9.22,0,0,1,9.22,9.22V27a9.22,9.22,0,0,1-9.22,9.22H627.33a0,0,0,0,1,0,0V20.27A9.22,9.22,0,0,1,636.55,11Z" class="cls-1"/><path d="M178,131.16V11.4h44.69a50.24,50.24,0,0,1,21.62,4.42A34.07,34.07,0,0,1,259,28.68q5.29,8.43,5.3,20.65t-5.87,21a34.78,34.78,0,0,1-15.83,12.94l27.49,47.91H245.31L215.73,78.59,230,87H200v44.21Zm22-63.5h23a21.53,21.53,0,0,0,10.29-2.33A16.79,16.79,0,0,0,240,58.82a18.94,18.94,0,0,0,2.41-9.65A18.79,18.79,0,0,0,240,39.45,17,17,0,0,0,233.26,33,21.53,21.53,0,0,0,223,30.69H200Z" class="cls-2"/><path d="M324.08,133.08q-13.5,0-23.71-6.1a42.38,42.38,0,0,1-15.84-16.56,48.05,48.05,0,0,1-5.62-23.15,46.61,46.61,0,0,1,5.79-23.39,43.71,43.71,0,0,1,15.59-16.15,41.86,41.86,0,0,1,22.18-5.95,45,45,0,0,1,18.09,3.38,38.62,38.62,0,0,1,13.26,9.32,41.76,41.76,0,0,1,8.36,13.58,48.1,48.1,0,0,1,2.65,21.22,20.43,20.43,0,0,1-.88,4.26H296.43V77.3h55.62l-10.13,7.56a23,23,0,0,0-.56-13.18,18.92,18.92,0,0,0-7.07-9.16,20.27,20.27,0,0,0-11.82-3.38,20.49,20.49,0,0,0-19.53,13q-2.65,6.27-2,15.27a28.49,28.49,0,0,0,2.17,14.23,21.1,21.1,0,0,0,8.36,9.56,24.11,24.11,0,0,0,12.78,3.38,23.38,23.38,0,0,0,12.3-3.06,21.92,21.92,0,0,0,7.95-8.19l17,8.36a29.86,29.86,0,0,1-8,11.09,40.18,40.18,0,0,1-13,7.55A48,48,0,0,1,324.08,133.08Z" class="cls-2"/><path d="M380.82,131.16V9.47H402V89.2l-8-2.41,41.16-43.08h26.2l-32.31,35.2L462,131.16H437.89L409.28,85.82l12.53-2.57-26.36,28.46,6.59-13v32.48Z" class="cls-2"/><path d="M473.58,131.16V43.71h19.93V63.16l-1.61-2.9q3.06-9.8,9.56-13.66a30.25,30.25,0,0,1,15.68-3.86h5.14V61.55h-7.55q-9,0-14.47,5.47t-5.47,15.43v48.71Z" class="cls-2"/><path d="M565,133.08q-10.29,0-17.68-4.5A30.09,30.09,0,0,1,535.94,116a41.49,41.49,0,0,1-4-18.8V43.71h21.21V95.47a20.21,20.21,0,0,0,2.17,9.56,15.72,15.72,0,0,0,6.27,6.43,18.35,18.35,0,0,0,9.25,2.34,17.86,17.86,0,0,0,9.16-2.34,16.24,16.24,0,0,0,6.27-6.51,20.69,20.69,0,0,0,2.25-10V43.71h21.06v87.45H589.64V114l1.6,3.06a22.79,22.79,0,0,1-10,12.06A31.85,31.85,0,0,1,565,133.08Z" class="cls-2"/><path d="M629,131.16V43.71h21.21v87.45Z" class="cls-2"/><path d="M709.55,132.12q-14.79,0-23-8.12t-8.19-22.9V62.52h-15V43.71H665q6.43,0,9.89-3.38t3.46-9.8V23.78h21.21V43.71h20.1V62.52h-20.1V100a16.34,16.34,0,0,0,1.53,7.39,10.22,10.22,0,0,0,4.82,4.67,19.31,19.31,0,0,0,8.44,1.6,25.16,25.16,0,0,0,2.66-.16l3-.32v18c-1.5.21-3.22.42-5.14.64A49.48,49.48,0,0,1,709.55,132.12Z" class="cls-2"/></g></g></svg>