<svg version="1.0" xmlns="http://www.w3.org/2000/svg" width="682.667" height="682.667" viewBox="0 0 512 512"><path d="M130 66c-17.6 2.2-33.3 7-49.3 15.2C41.4 101.3 14.4 137 4.8 181.3 3 189.8 2.6 194.7 2.6 211c0 17.9.2 20.5 2.8 31.5 2.8 11.8 7.5 25.4 12.3 34.8l2.4 4.8L10 308.5C4.5 323 0 336 0 337.4c0 3.2 4.2 8.2 7.7 9 1.8.5 10.3-1.6 29.3-7.5l26.7-8.2 8.7 5.3c33.4 20.1 75.1 25.5 112.7 14.6 10.8-3.1 24.4-9 33.3-14.5 3.8-2.3 7-4 7.2-3.8.2.2 1.7 5 3.4 10.8 3.9 13.2 13 31.9 21.1 43.3 21.3 29.9 55.6 51.6 91.9 58.2 12.8 2.3 36.4 2.3 48.5 0 18.5-3.5 40.7-12.1 53.1-20.6l4.3-3.1 26 8.1c14.3 4.4 26.9 8 28.1 8 5.1 0 10-4.9 10-10 0-1-4.5-13.7-10-28.1l-10.1-26.3 4.5-9.6c4.9-10.6 8.5-22 11.3-35 2.8-13.3 2.5-42.2-.5-55.8-6.9-31-18.8-52.9-40.1-74.3-20.7-20.6-43.5-33.1-72.1-39.4-11.4-2.5-37.3-3.1-49.5-1.2-18.5 3-37.4 9.7-51.9 18.6-3.8 2.3-7 4-7.2 3.8-.2-.2-1.8-5-3.4-10.8-17.6-59.6-71-101-133.2-103.3-6.8-.3-15.7-.1-19.8.4zm42 22.4c37.5 8.5 67.5 32.7 84.7 68.3 5 10.2 11.3 30.7 11.3 36.5 0 1.1-3.1 5.3-6.8 9.3-13.2 14.1-24.5 33.5-30.6 52.5-4.6 14.2-6.7 25.9-7.5 41.5l-.6 13-9.2 6.1c-11.1 7.4-24.4 13.4-37.8 16.9-12.2 3.3-34.8 4.5-47.3 2.6-18.2-2.8-35.7-9.6-50.7-19.6-6-4-9.2-5.5-11.7-5.5-1.8 0-11.2 2.5-20.8 5.5-9.6 3-17.5 5.3-17.7 5.1-.2-.2 2.8-8.6 6.7-18.7 3.8-10.1 7-19.5 7-20.8 0-1.3-2-6.4-4.5-11.3-17.3-33.6-19.1-73.3-4.9-107.6C38 146.7 45 136 56.9 123.7c20.5-21.2 45.8-34.1 74.4-37.7 10.9-1.3 28.7-.3 40.7 2.4zm224.2 90.9c68.7 18 108.1 88.1 88.8 157.7-1.2 4.1-4.8 13.1-8 19.9-3.3 6.8-6 13.4-6 14.7 0 1.2 3.1 10.5 7 20.5 3.8 10.1 6.8 18.5 6.5 18.7-.2.2-8.5-2.1-18.6-5.2-10-3.1-19.1-5.6-20.2-5.6-1.1 0-6.3 2.8-11.6 6.2-50.6 32.8-114.6 25.5-156.2-17.8-21.9-22.9-33.4-50.2-34.6-82.4-1.3-36.3 11.3-68.6 36.7-94 14.4-14.5 30.1-24.1 49.6-30.5 13.8-4.5 21.3-5.5 39.9-5.1 14.3.3 18.6.8 26.7 2.9z"/><path d="M138.7 153.8c-2.2 2.3-2.6 3.7-2.9 9.7l-.3 7-17 .5c-9.3.3-17.7.9-18.6 1.3-1.6.8-3.1 3.3-4.3 7-.3 1 .1 3.4.9 5.3 1.8 4.3 6.3 6.4 13.9 6.4h5.5l.6 3.7c2.1 12.3 7.1 26 13 35.3l2.8 4.4-3.5 3.1c-5.3 4.5-15.4 10.2-22.4 12.5-7.9 2.7-10.7 5.6-10.7 11.1 0 3.5.6 4.8 3.2 7.1 4 3.6 7.1 3.6 16.7-.3 9.1-3.5 14.9-6.8 22.3-12.4 2.9-2.2 5.9-4.4 6.5-4.9.8-.5 3.6 1 8 4.3 10.3 7.9 27.9 16.1 34.2 16.1 1.3 0 3.8-1.3 5.6-2.9 2.7-2.4 3.3-3.6 3.3-6.9 0-5.4-2.9-8.4-10.8-11.2-6.9-2.4-17.5-8.4-22.5-12.7l-3.4-2.8 4.1-6.9c4.8-8.3 9.3-20.5 11.1-29.9l1.2-6.7h6c10.5 0 16.2-5.4 13.9-13.1-1.9-6.3-3.8-6.9-22.6-6.9H156v-4.4c0-10.7-3.3-15.6-10.4-15.6-3.3 0-4.8.6-6.9 2.8zm15.7 39.9c-2.2 10.2-7.3 23.3-9 23.3-.3 0-1.8-2.8-3.4-6.3-2.5-5.7-3.7-9.1-5.4-17l-.6-2.7h19l-.6 2.7zM307.5 286.9c-3.7 1.6-6 5.1-6 9.3 0 3.3.6 4.5 3.3 6.9 4.4 4 9.3 4 13.3 0 7.6-7.6-.7-20.2-10.6-16.2zM361.3 287.9c-8.3 5.1-4.5 18.1 5.3 18.1 5 0 9.4-4.5 9.4-9.5 0-4.7-1.3-7.1-5-9-3.8-2-5.8-1.9-9.7.4zM416.8 287.5c-8.5 4.7-5.1 18.5 4.5 18.5 4.3 0 9.2-3.8 10-7.7.6-3.1-1.2-8.1-3.6-10.1-2.4-2-7.9-2.4-10.9-.7z"/></svg>