<?xml version="1.0" standalone="no"?>
<!DOCTYPE svg PUBLIC "-//W3C//DTD SVG 20010904//EN"
 "http://www.w3.org/TR/2001/REC-SVG-20010904/DTD/svg10.dtd">
<svg version="1.0" xmlns="http://www.w3.org/2000/svg"
 width="512.000000pt" height="512.000000pt" viewBox="0 0 512.000000 512.000000"
 preserveAspectRatio="xMidYMid meet">

<g transform="translate(0.000000,512.000000) scale(0.100000,-0.100000)"
fill="#000000" stroke="none">
<path d="M1300 4460 c-176 -22 -333 -70 -493 -152 -393 -201 -663 -558 -759
-1001 -18 -85 -22 -134 -22 -297 0 -179 2 -205 28 -315 28 -118 75 -254 123
-348 l24 -48 -101 -264 c-55 -145 -100 -275 -100 -289 0 -32 42 -82 77 -90 18
-5 103 16 293 75 l267 82 87 -53 c334 -201 751 -255 1127 -146 108 31 244 90
333 145 38 23 70 40 72 38 2 -2 17 -50 34 -108 39 -132 130 -319 211 -433 213
-299 556 -516 919 -582 128 -23 364 -23 485 0 185 35 407 121 531 206 l43 31
260 -81 c143 -44 269 -80 281 -80 51 0 100 49 100 100 0 10 -45 137 -100 281
l-101 263 45 96 c49 106 85 220 113 350 28 133 25 422 -5 558 -69 310 -188
529 -401 743 -207 206 -435 331 -721 394 -114 25 -373 31 -495 12 -185 -30
-374 -97 -519 -186 -38 -23 -70 -40 -72 -38 -2 2 -18 50 -34 108 -176 596
-710 1010 -1332 1033 -68 3 -157 1 -198 -4z m420 -224 c375 -85 675 -327 847
-683 50 -102 113 -307 113 -365 0 -11 -31 -53 -68 -93 -132 -141 -245 -335
-306 -525 -46 -142 -67 -259 -75 -415 l-6 -130 -92 -61 c-111 -74 -244 -134
-378 -169 -122 -33 -348 -45 -473 -26 -182 28 -357 96 -507 196 -60 40 -92 55
-117 55 -18 0 -112 -25 -208 -55 -96 -30 -175 -53 -177 -51 -2 2 28 86 67 187
38 101 70 195 70 208 0 13 -20 64 -45 113 -173 336 -191 733 -49 1076 64 155
134 262 253 385 205 212 458 341 744 377 109 13 287 3 407 -24z m2242 -909
c687 -180 1081 -881 888 -1577 -12 -41 -48 -131 -80 -199 -33 -68 -60 -134
-60 -147 0 -12 31 -105 70 -205 38 -101 68 -185 65 -187 -2 -2 -85 21 -186 52
-100 31 -191 56 -202 56 -11 0 -63 -28 -116 -62 -506 -328 -1146 -255 -1562
178 -219 229 -334 502 -346 824 -13 363 113 686 367 940 144 145 301 241 496
305 138 45 213 55 399 51 143 -3 186 -8 267 -29z"/>
<path d="M1387 3582 c-22 -23 -26 -37 -29 -97 l-3 -70 -170 -5 c-93 -3 -177
-9 -186 -13 -16 -8 -31 -33 -43 -70 -3 -10 1 -34 9 -53 18 -43 63 -64 139 -64
l55 0 6 -37 c21 -123 71 -260 130 -353 l28 -44 -35 -31 c-53 -45 -154 -102
-224 -125 -79 -27 -107 -56 -107 -111 0 -35 6 -48 32 -71 40 -36 71 -36 167 3
91 35 149 68 223 124 29 22 59 44 65 49 8 5 36 -10 80 -43 103 -79 279 -161
342 -161 13 0 38 13 56 29 27 24 33 36 33 69 0 54 -29 84 -108 112 -69 24
-175 84 -225 127 l-34 28 41 69 c48 83 93 205 111 299 l12 67 60 0 c105 0 162
54 139 131 -19 63 -38 69 -226 69 l-165 0 0 44 c0 107 -33 156 -104 156 -33 0
-48 -6 -69 -28z m157 -399 c-22 -102 -73 -233 -90 -233 -3 0 -18 28 -34 63
-25 57 -37 91 -54 170 l-6 27 95 0 95 0 -6 -27z"/>
<path d="M3075 2251 c-37 -16 -60 -51 -60 -93 0 -33 6 -45 33 -69 44 -40 93
-40 133 0 76 76 -7 202 -106 162z"/>
<path d="M3613 2241 c-83 -51 -45 -181 53 -181 50 0 94 45 94 95 0 47 -13 71
-50 90 -38 20 -58 19 -97 -4z"/>
<path d="M4168 2245 c-85 -47 -51 -185 45 -185 43 0 92 38 100 77 6 31 -12 81
-36 101 -24 20 -79 24 -109 7z"/>
</g>
</svg>
