<?xml version="1.0" encoding="utf-8"?>
<svg xmlns="http://www.w3.org/2000/svg" xmlns:xlink="http://www.w3.org/1999/xlink" style="margin: auto; background: none; display: block; shape-rendering: auto;" width="104px" height="104px" viewBox="0 0 100 100" preserveAspectRatio="xMidYMid">
<g transform="translate(50 50)">
<g>
<animateTransform attributeName="transform" type="rotate" values="0;72" keyTimes="0;1" dur="0.34602076124567477s" repeatCount="indefinite"></animateTransform><path d="M19.22888452302941 -5.5 L30.22888452302941 -5.5 L30.22888452302941 5.5 L19.22888452302941 5.5 A20 20 0 0 1 11.172862940112838 16.588162457651936 L11.172862940112838 16.588162457651936 L14.572049878237259 27.049784136898626 L4.110428198990571 30.448971075023046 L0.711241260866149 19.987349395776356 A20 20 0 0 1 -12.32367547439559 15.75204820973389 L-12.32367547439559 15.75204820973389 L-21.22286241252001 22.217685984951093 L-27.688500187737226 13.318499046826666 L-18.789313249612803 6.852861271609461 A20 20 0 0 1 -18.789313249612803 -6.852861271609456 L-18.789313249612803 -6.852861271609456 L-27.688500187737226 -13.318499046826659 L-21.222862412520016 -22.21768598495109 L-12.323675474395595 -15.752048209733886 A20 20 0 0 1 0.7112412608661396 -19.987349395776356 L0.7112412608661396 -19.987349395776356 L4.110428198990559 -30.448971075023046 L14.572049878237257 -27.049784136898626 L11.172862940112838 -16.588162457651936 A20 20 0 0 1 19.228884523029407 -5.500000000000009 M0 -39A39 39 0 1 0 0 39 A39 39 0 1 0 0 -39" fill="#788475"></path></g></g>
<!-- [ldio] generated by https://loading.io/ --></svg>